<svg width="365" height="461" viewBox="0 0 365 461" xmlns="http://www.w3.org/2000/svg">
    <g fill-rule="nonzero" fill="none">
        <g fill="#F26A25">
            <path d="M58 444.6c0-9 7.188-15.6 16.923-15.6 9.734 0 16.922 6.6 16.922 15.6s-7.188 15.6-16.922 15.6C65.188 460.2 58 453.6 58 444.6m23.512 0c0-4.65-2.995-7.5-6.74-7.5-3.743 0-6.738 2.85-6.738 7.5s2.995 7.5 6.739 7.5c3.744 0 6.74-2.85 6.74-7.5M123.444 440.85c0 6.9-5.241 11.25-13.628 11.25h-4.343v7.35H95.44v-30h14.376c8.237.15 13.628 4.5 13.628 11.4m-10.183 0c0-2.25-1.348-3.45-4.044-3.45h-3.744v7.05h3.744c2.696 0 4.044-1.35 4.044-3.6M151.599 451.95v7.5h-24.86V429.6H151v7.65h-14.377v3.45h12.58v7.2h-12.58v4.05zM184.845 429.6v29.85h-8.236l-11.382-13.5v13.5h-9.884V429.6h8.386l11.382 13.65V429.6zM219.14 429.6v29.85h-8.237l-11.381-13.5v13.5h-9.735V429.6h8.237l11.382 13.65V429.6zM248.942 451.95v7.5h-24.86V429.6h24.261v7.65h-14.377v3.45h12.58v7.2h-12.58v4.05zM250.889 457.2l3.295-7.35c2.845 1.65 6.589 2.7 9.884 2.7 2.845 0 3.893-.6 3.893-1.65 0-3.75-16.473-.75-16.473-11.85 0-5.55 4.642-10.05 13.927-10.05 4.044 0 8.087.9 11.232 2.55l-2.995 7.35c-2.995-1.5-5.69-2.25-8.386-2.25-2.995 0-3.894.9-3.894 1.95 0 3.6 16.473.6 16.473 11.7 0 5.4-4.642 10.05-13.927 10.05-4.942-.15-10.034-1.35-13.03-3.15M279.043 457.2l3.295-7.35c2.846 1.65 6.59 2.7 9.884 2.7 2.846 0 3.894-.6 3.894-1.65 0-3.75-16.473-.75-16.473-11.85 0-5.55 4.642-10.05 13.927-10.05 4.044 0 8.087.9 11.232 2.55l-2.995 7.35c-2.995-1.5-5.691-2.25-8.387-2.25-2.995 0-3.893.9-3.893 1.95 0 3.6 16.473.6 16.473 11.7 0 5.4-4.643 10.05-13.928 10.05-5.091-.15-10.183-1.35-13.029-3.15"/>
        </g>
        <g fill="#212121">
            <path d="M138.575 414.55v4.8H123V400.6h15.275v4.8h-8.985v2.1h7.937v4.65h-7.937v2.4zM154.15 419.35l-3.145-4.95-3.295 4.95h-7.188l6.739-9.45-6.44-9.3h7.039l3.295 4.65 2.995-4.65h6.889l-6.59 9 7.039 9.75zM181.256 407.65c0 4.35-3.295 7.05-8.536 7.05h-2.696v4.65h-6.29V400.6h8.986c5.092 0 8.536 2.7 8.536 7.05m-6.44 0c0-1.35-.898-2.25-2.545-2.25h-2.247v4.35h2.247c1.647.15 2.545-.75 2.545-2.1M200.275 414.55v4.8h-15.724V400.6h15.275v4.8h-8.985v2.1h7.937v4.65h-7.937v2.4zM203.27 409.9c0-5.85 4.493-9.9 10.484-9.9 3.744 0 6.589 1.35 8.386 3.75l-4.043 3.6c-1.049-1.35-2.397-2.25-4.044-2.25-2.696 0-4.343 1.8-4.343 4.65 0 2.85 1.797 4.65 4.343 4.65 1.647 0 2.995-.75 4.044-2.25l4.043 3.6c-1.797 2.4-4.792 3.75-8.386 3.75-5.99.3-10.483-3.75-10.483-9.6M229.329 405.55h-5.542v-4.95h17.372v4.95h-5.54v13.8h-6.29z"/>
        </g>
        <g>
            <path d="M157.231 71.864c-4.087-1.024-8.514.342-11.239 3.413-2.043 2.39-2.724 5.46-3.065 8.532-2.384 16.723 7.833 32.764 19.754 44.709 1.362 1.365 2.724 2.73 4.427 2.73 1.703 0 3.065-1.024 4.087-2.048 8.174-6.484 15.667-13.651 22.138-21.5 8.174-9.898 15.326-22.184 14.304-35.153-.34-5.46-3.065-11.604-8.174-13.652-4.427-1.706-9.536 0-13.623 2.39-4.427 2.73-8.514 6.143-11.92 10.238-3.065 3.754-4.768 9.215-7.834 12.286-2.724-4.778-2.384-10.238-8.855-11.945" fill="#F26A25"/>
            <path d="M200.826 62.99c-5.109-2.047-10.899 1.025-15.326 3.755-8.515 5.12-14.986 13.31-19.073 22.525-2.043-6.485-5.109-12.969-10.558-16.382-6.471-3.754-13.964-.682-16.348 6.485-3.065 8.19 1.022 18.088 5.109 24.913 3.065 5.802 7.833 10.921 12.942 15.358 3.065 3.754 7.493 8.532 11.92 7.508 2.725-.682 5.79-4.095 7.834-6.143l8.174-8.19c8.855-9.556 20.434-22.525 21.456-36.518.34-4.778-1.022-11.262-6.13-13.31m.34 20.477c-4.427 9.897-11.92 19.112-19.072 26.961-3.406 3.755-7.152 7.509-10.899 11.263-1.022 1.365-1.703 2.389-3.406 2.389s-2.384-1.365-3.746-2.39c-2.043-2.047-4.428-3.753-6.812-5.8-6.13-6.827-10.558-14.676-12.942-23.89-1.021-3.414-2.043-7.51-.68-11.263 2.043-5.46 8.173-6.143 11.92-2.048 4.768 4.778 6.47 13.31 8.173 19.795.682 2.047 4.087 2.389 4.428 0 1.703-9.556 6.13-18.089 13.623-24.232 3.747-3.413 8.515-6.825 13.623-7.85 10.558-2.388 8.174 11.604 5.79 17.065" fill="#212121"/>
            <path d="M147.695 81.762c0-.683-1.022-.683-1.022 0-1.021 4.436 0 9.556 2.384 13.651.341.683 1.703 0 1.363-.683-2.384-4.436-3.065-8.19-2.725-12.968M152.123 100.874c-.34-.342-.681 0-.681.34.34 1.025.68 1.707 1.021 2.731.34.683 1.363 0 1.022-.682-.34-.683-.681-1.707-1.362-2.39M156.21 107.017c-.34-.342-1.363.34-.682.682.341.342.682.683 1.022.683.34.341 1.022-.341.681-.683-.34 0-.68-.341-1.021-.682M191.63 70.84c-9.877 5.802-16.688 15.358-18.391 26.962 0 .683 1.362 1.024 1.362.341 1.703-10.92 7.833-20.477 17.37-25.937.68-1.024.34-1.707-.341-1.366" fill="#212121"/>
            <path d="M185.159 80.396c-1.022 1.024-2.043 2.048-2.725 3.413 0 .342.34.342.34.342 1.023-1.366 1.704-2.39 2.385-3.755.681 0 .34 0 0 0M189.587 77.325c-.341.682.68 1.365 1.021.682.681-1.023 1.363-1.706 2.384-2.389.682-.34 0-1.365-.68-1.023-1.023.34-2.044 1.365-2.725 2.73M170.514 103.945c-.34 1.024-.681 1.707-.681 2.73-.34.683.681.683 1.022.342.34-1.024.68-1.707 1.021-2.73 0-.683-1.021-1.024-1.362-.342M171.876 112.477l-.34 1.024c-.34.341.34 1.024.68.341l.342-1.024c.34-.34-.341-.682-.682-.34M198.101 74.253c-1.703 7.167-4.768 13.652-9.196 19.795-.34.341.341 1.024.682.682 5.108-5.801 8.173-12.627 9.536-20.135.34-.683-1.022-1.024-1.022-.342M201.166 119.985c.681-.34.681-1.365 0-1.706-.68-1.024-1.362-1.706-2.384-2.73-.68-1.024-2.384.341-1.703 1.365.681 1.024 1.363 2.048 2.044 2.73.681.683 1.362 1.024 2.043.341M214.108 50.705c-1.021 1.023-2.043 2.389-2.724 3.412-1.022 1.366-2.044 2.39-3.066 3.755 0 0 0 .34.341.34l3.406-3.412c1.022-1.024 2.384-2.048 3.065-3.072 0-.682-.681-1.365-1.022-1.023M215.811 76.642c-.68 0-.68 1.024 0 1.024 9.196 1.707 19.413 5.12 28.95 3.754 1.703-.341 2.724-3.071.34-3.413-9.536-2.047-19.753-.34-29.29-1.365M236.587 112.477c-7.834-3.754-17.03-4.778-25.203-7.508-.34 0-.681.341-.34.683 7.492 3.754 15.666 8.873 24.18 9.897 1.703.341 3.406-2.048 1.363-3.072M206.956 143.193c1.362 1.365 4.087-.341 2.725-2.048-4.428-7.167-11.24-13.31-17.03-19.794-.34-.342-1.021 0-.68.682 5.108 6.826 9.195 15.017 14.985 21.16" fill="#212121"/>
            <path d="M222.282 132.272c1.363.682 2.725-1.365 1.363-2.39-1.703-1.023-3.747-2.047-5.79-3.07-2.044-1.025-3.747-2.049-5.79-3.072-.681-.342-1.362.682-.681 1.023 1.703 1.024 3.746 2.39 5.449 3.413 2.043 1.707 3.746 3.072 5.45 4.096M228.753 94.73c1.363.342 1.703-1.706.681-2.047-3.065-1.365-6.811-1.365-10.217-1.365-1.022 0-1.022 1.365 0 1.365 3.406 0 6.471 1.024 9.536 2.047M227.391 59.578c-3.406 1.365-6.812 3.754-9.877 6.143-.681.683 0 2.048.681 1.365 3.066-2.047 6.471-3.413 9.537-5.46 1.362-.683 1.021-2.39-.341-2.048M188.565 40.807c-.681 3.072-.681 6.143-.681 9.215 0 .683 1.021 1.024 1.362.341.681-2.73 1.703-5.802 2.043-8.873.341-1.365-2.384-2.39-2.724-.683" fill="#F26A25"/>
            <path d="M167.449 55.824c-.34 1.365-.34 3.071-.681 4.778 0 1.365 2.043 1.365 2.043 0s.681-3.072.34-4.437c0-1.024-1.362-1.365-1.702-.341" fill="#212121"/>
            <path d="M146.333 62.308a31.169 31.169 0 0 1 2.724 4.437c.341.683 1.363.341 1.022-.341-.34-2.048-1.362-3.754-2.384-5.46-.681-1.366-2.384 0-1.362 1.364" fill="#F26A25"/>
            <path d="M170.173 142.169c0 1.024 1.363 1.365 1.703.341.682-1.365-.34-3.413-1.362-4.778-.681-.682-1.703.342-1.022 1.024.34.341.681 1.024.681 1.707.341.682 0 1.365 0 1.706" fill="#212121"/>
            <path d="M185.5 128.518c.34 1.365 1.021 2.73 1.362 4.095.34 1.365 2.384.683 1.703-.683-.681-1.365-1.022-2.389-1.703-3.754-.34-1.024-1.703-.341-1.362.342M173.239 216.57c3.746-19.795 5.79-40.272-6.13-57.678-8.175-11.945-20.436-19.453-31.675-27.644-7.493-5.46-13.623-10.921-14.645-20.477-1.021-8.532-.68-16.723-2.724-25.255-1.703-8.191-6.13-15.017-9.196-22.525-2.725-6.826-2.725-13.993-5.79-20.819-3.065-7.167-9.536-13.992-16.348-17.746-2.043-1.024-4.768-2.048-5.79.34-1.703 3.414-1.021 8.533-.68 12.287.34 10.921 1.02 21.842-1.363 32.422-.34 1.707-.681 3.413-1.362 5.12-3.066-5.461-5.79-10.922-7.493-16.723-2.384-6.485-4.768-13.652-9.537-18.771-2.724-3.072-8.855-6.826-9.536 0-.34 3.754 1.022 7.167 2.044 10.58 1.362 4.436 3.406 8.532 5.108 12.627 2.725 6.485 5.11 12.628 6.13 19.454 1.363 9.214 3.066 18.088 6.131 26.62 3.747 10.92 8.174 22.183 14.986 31.74 5.79 8.531 13.964 14.675 21.797 21.5 16.688 14.676 35.42 36.177 30.993 60.066-.34 2.048-1.022 4.096-1.362 6.144M193.674 247.285c-8.174-39.59-10.9-57.336 3.746-73.376 9.877-10.58 24.522-20.136 36.442-27.645 7.833-4.778 14.304-9.897 16.007-19.453 1.703-8.19 1.703-16.723 4.428-24.914 2.384-7.85 8.174-13.651 11.92-20.818 3.065-6.484 2.725-15.017 6.13-21.16 3.747-6.825 10.559-13.31 17.71-16.723 2.044-1.024 4.769-1.706 5.79.683 1.363 3.413.341 8.532 0 12.286-1.021 10.921-2.383 21.842-.68 32.422.34 1.707.68 3.413 1.021 5.46 3.406-5.118 6.471-10.579 8.855-16.04 2.725-6.484 5.45-13.31 10.899-18.088 3.065-2.73 9.536-6.143 9.536.683 0 3.754-1.362 7.167-2.724 10.58-1.703 4.095-3.747 8.19-5.79 12.286-3.066 6.143-5.79 12.286-7.152 19.112-2.044 8.873-4.428 17.747-7.834 26.279-4.427 10.58-9.536 21.5-17.029 30.716-6.47 8.19-14.985 13.651-23.16 19.794-17.71 13.652-44.956 36.518-32.695 57.677 1.703 2.73 2.725 5.802 3.065 7.85" fill="#F26A25"/>
            <path d="M226.37 226.808h1.362c-.341-3.072 1.362-6.485 2.724-9.556.34-.683.681-1.365.681-2.048.682-1.365 1.363-2.389 2.044-3.754.34-.683 1.022-1.365 1.362-2.048l.34-.682 3.066-5.12c3.746-4.095 7.833-7.85 11.58-10.92 5.449-4.779 10.558-8.874 15.326-11.946 3.065-2.047 5.79-4.436 8.174-6.484.681-.683 1.362-1.024 2.043-1.707l4.087-3.071c1.022-1.024 2.384-1.707 3.406-2.73 3.065-2.39 4.768-5.12 5.45-5.802 1.362-2.39 1.702-4.096 2.724-7.167.34-.683.34-1.707.681-2.39l-1.022-.34c-.34 1.023-.68 1.706-1.021 2.388-.681 2.73-1.363 4.778-2.384 6.826-.341.683-2.044 3.072-5.11 5.46-1.02 1.025-2.383 1.707-3.405 2.731l-4.087 3.072c-.681.682-1.362 1.023-2.043 1.706-2.725 2.389-5.45 4.437-8.174 6.484-4.768 3.413-9.877 7.167-15.326 11.945-3.747 3.413-7.834 7.167-11.58 11.263-1.362 1.706-2.384 3.413-3.406 5.12l-.34.682c-.341.682-.682 1.365-1.363 2.047-.681 1.365-1.362 2.39-2.043 3.754-.34.683-.682 1.366-.682 2.048-1.702 3.072-3.405 6.485-3.065 10.239" fill="#212121"/>
            <path d="M289.717 155.82c1.022-2.047 2.384-7.85 3.406-10.58.681-2.388 1.362-4.436 2.044-5.46 1.021-2.048 4.427-9.897 5.108-11.604.681-2.047 4.428-9.556 5.45-11.603 2.043-3.755 8.514-17.065 8.855-18.088.34-1.024.68-2.048.68-3.072.341-1.365.682-2.389 1.023-3.754l.68-1.707c1.363-4.095 2.725-7.85 4.769-11.262 1.703-2.73 2.724-6.143 4.087-8.873.34-1.024.681-1.707 1.022-2.73l.34-.683c.681-1.365 1.022-2.73 1.362-4.096.341-1.706 1.022-4.095-1.362-5.46-1.703-1.024-3.406-1.024-5.45-1.024-1.02 0-3.405.682-4.767 1.706l-3.747 3.754-.34.342c-2.725 3.071-4.768 7.167-5.109 8.19-1.022 2.048-3.065 10.922 0 12.97l.681-1.366c-1.703-1.024-.681-8.19.681-10.92.34-.683 2.384-5.12 5.11-7.85l.34-.342c1.021-1.024 2.384-2.73 3.405-3.413 1.363-1.023 3.066-1.365 4.087-1.365 1.703-.341 3.066 0 4.428.683 1.362.682 1.022 2.048.681 3.754-.34 1.365-.681 2.389-1.362 3.754l-.34.683c-.341 1.024-.682 1.706-1.023 2.73-1.021 3.072-2.384 6.143-3.746 8.873-2.043 3.755-3.406 7.509-5.109 11.604l-.68 1.707-1.023 4.095c-.34 1.024-.34 2.048-.68 3.072-.341 1.023-6.472 13.992-8.515 18.088l-5.79 11.603c-.681 1.707-4.087 9.556-5.109 11.604-.68 1.365-1.362 3.413-2.043 5.802-1.022 2.73-1.703 6.143-2.725 8.19l.681 2.048z" fill="#212121"/>
            <path d="M295.167 100.532c.68-1.024 1.021-2.047 1.362-3.071.34-.342.34-1.024.681-1.365.34-.683 1.362-3.072 2.384-5.12 1.362-3.071 3.065-6.484 3.746-7.85.341-1.364 3.066-5.46 3.747-5.801l-1.022-1.707c-1.022.683-4.087 5.461-4.427 6.485-.682 1.365-2.044 4.778-3.747 7.508a97.183 97.183 0 0 1-2.384 5.12c-.34.34-.34 1.023-.681 1.365-.34 1.023-.681 2.047-1.362 3.071l1.703 1.365z" fill="#212121"/>
            <path d="M295.848 94.73h1.362v-6.825c0-2.73-.34-8.191-.34-10.58V69.134c0-2.73.34-5.46.68-8.19v-1.025c.682-4.095 1.363-8.532 2.044-12.627.681-2.73 1.362-7.509-1.703-9.556-1.022-.683-2.384-1.365-3.746-1.024-1.703 0-3.406 1.024-4.428 2.048-1.362 1.365-2.724 3.071-3.406 4.436-1.021 1.365-1.362 2.39-2.043 3.754-1.703 4.096-2.384 7.85-2.725 10.922v.682c-.34 1.707-.34 3.413-.34 5.12 0 .682.68 3.412 2.043 4.436.34.341 1.022.341 1.022.341l-.34-1.365c-.341-.341-1.363-2.73-1.363-3.413-.34-1.706 0-3.071.34-4.778v-.682c.341-3.072 1.022-6.826 2.725-10.58.681-1.365 1.022-2.389 1.703-3.413.681-1.365 2.044-2.73 3.406-4.095.681-1.024 2.043-1.365 3.406-1.707 1.022 0 2.043.342 2.724 1.024 2.385 1.365 1.363 5.46 1.022 7.85-.681 4.436-1.362 8.532-2.043 12.969v1.023c-.34 2.73-.681 5.802-.681 8.533v7.849c0 2.39 0 7.85.34 10.58v2.048c.34 1.706.34 3.754.34 4.436" fill="#212121"/>
            <path d="m281.203 96.437 1.021-1.024c-1.362-1.024-1.702-2.389-2.043-2.73-.34-.683-.34-1.707-.34-2.73v-7.509c0-2.73 1.362-12.286 2.043-13.651l.34-.683c.341-1.365 1.022-3.071 1.363-4.095l-1.363-.342c-.34 1.024-1.021 2.73-1.362 3.755l-.34.682c-.682 1.707-2.044 11.263-2.044 14.334V89.952c0 1.024 0 2.048.34 3.072 0 .341.341 2.048 2.385 3.413" fill="#212121"/>
            <path d="m270.985 117.938 1.363-1.707c0-2.73.34-4.436.68-5.802 0-.34 0-.34.341-.682.341-1.024.341-2.048.341-2.73 0-.683.34-1.365.34-2.39.341-1.023.682-2.388 1.363-3.753.34-.683.681-1.707 1.022-2.39.34-1.023 1.362-2.388 2.043-3.412.34-.683.681-1.365 1.022-1.707l-1.362-.682c0 .341-.682 1.024-1.022 1.365-.681 1.024-1.703 2.389-2.044 3.754-.34.683-.68 1.365-1.021 2.389-.682 1.365-1.022 2.73-1.363 4.095-.34 1.024-.34 1.707-.34 2.39 0 1.023-.34 1.706-.34 2.73 0 .34 0 .34-.342.682 0 1.365-.68 4.778-.68 7.85M268.942 82.444l.681-1.365c-1.703-1.024-2.043-1.706-2.043-2.048v-.341c-.341-.341-.341-.683-.341-1.365v-5.119c.34-3.413 1.362-7.509 3.065-10.922.34-.682.681-1.706 1.022-2.73 1.022-2.389 2.043-4.778 3.746-6.484 1.022-1.024 2.044-1.365 3.406-1.365 1.022 0 1.703 0 2.044.34.68.342 1.702.683 2.384 2.049l1.362-.683c-1.022-1.365-2.384-2.389-3.065-2.73-1.022-.342-2.384-.342-2.725-.342-1.362 0-3.065.342-4.427 1.707-2.044 2.048-3.066 4.437-4.087 7.167-.341 1.024-.682 1.706-1.022 2.389-1.703 3.754-2.725 7.85-3.406 11.604v1.023c0 1.366-.34 2.73-.34 3.755v.34c0 .683 0 1.366.34 1.707v.342c1.022 1.023 1.362 2.047 3.406 3.071" fill="#212121"/>
            <path d="m262.13 104.286 1.022-.682s-.34-1.024-.34-1.365c0-1.024-.341-2.048 0-3.072 0-1.706.34-3.413.34-5.12V91.66c0-1.707.34-3.072.681-4.778.34-1.365 1.022-2.73 1.703-4.096 0-.34.34-.682.681-1.023.34-.342.681-1.024 1.363-1.707l-1.363-.682c-.34.682-.681 1.023-1.022 1.706-.34.341-.68.683-.68 1.024-.682 1.365-1.363 3.071-1.704 4.437-.34 1.706-.68 3.412-.68 5.119V94.048c-.341 1.706-.341 3.413-.341 5.12v3.07c0 .683.34 1.025.34 1.366-.34 0 0 .341 0 .682" fill="#212121"/>
            <path d="M256.68 130.565h1.363V129.2c0-.341 0-1.365-.34-1.706 0-1.365-.34-3.072-.34-3.413 0-1.707-.341-5.46 0-6.826 0-2.389.68-4.095 1.702-6.826.34-1.365 1.022-2.388 1.362-3.754.34-1.023 1.703-3.071 2.725-3.071l-.34-1.365c-1.704.34-3.066 3.071-3.406 4.095-.682 1.365-1.022 2.39-1.363 3.754-1.021 2.73-1.703 4.778-1.703 7.167v6.826c0 .341.34 1.706.34 3.413 0 .682 0 1.365.342 1.706-.341 0-.341 1.365-.341 1.365M252.594 103.604l1.362-.683v-5.12c.34-2.047 1.022-4.094 1.703-6.483.681-1.707 1.363-3.072 2.044-4.778.68-1.366 1.703-2.73 2.384-3.413.34-.683 1.703-1.365 2.384-1.365.34 0 1.703 0 2.384.682l1.022-1.365c-1.363-1.024-3.066-1.024-3.747-.683-1.022.342-2.384 1.024-3.065 2.048-1.022 1.024-2.043 2.73-2.384 3.413-1.022 1.706-1.703 3.072-2.384 4.778-1.022 2.389-1.703 4.437-1.703 6.826v6.143" fill="#212121"/>
            <path d="M249.529 119.303c0-.341 0-.683-.34-1.024V115.89c0-1.365.34-2.73.68-4.095.34-1.366.681-3.072 1.363-4.437.34-1.024 1.021-1.706 1.362-2.39 0-.34.34-.34.34-.682.341-.34.682-1.023 1.363-1.706l-1.022-1.024c-1.022 1.024-1.362 1.707-1.703 2.048l-.34.341c-.682.683-1.022 1.707-1.363 2.73-.68 1.366-1.021 3.072-1.362 4.437-.34 1.365-.681 3.072-.681 4.778v1.365c0 .341 0 .683.34.683v.682l1.363.683zM242.036 139.439h.681c.681-.342 1.022-5.12 1.022-5.12 0-1.706.34-3.412.681-4.778.34-1.023.681-2.047 1.022-2.73.34-.682.34-1.365.68-2.048 0-.34 0-.34.342-.682v-.341c.34-1.366 1.702-3.413 2.724-4.096l-1.362-1.024c-1.703 1.024-2.384 3.413-3.065 5.12v.34c0 .342 0 .342-.341.683 0 .683-.34 1.024-.681 1.707l-1.022 3.071c-.34 1.707-.681 3.413-.681 5.12 0 .682-.681 4.095-.681 4.436 0-.34.34-1.023 1.022-.682l-.341 1.024z" fill="#212121"/>
            <path d="M260.768 164.694c0-.683.681-1.707 1.022-2.73.34-.342.34-.683.68-1.366.341-1.023 1.023-1.706 1.363-2.73.34-1.024 1.022-1.706 1.362-2.73 1.363-2.73 3.066-5.46 4.428-7.508 1.022-1.707 2.725-3.072 4.428-5.12 1.021-1.024 2.043-1.706 2.724-2.73.681-.341 1.363-1.024 1.703-1.706 1.362-1.366 7.152-7.509 8.515-9.215.68-1.024 3.746-4.778 5.449-6.485.681-.682 1.022-1.365 1.022-1.365 2.384-2.73 5.108-7.508 5.79-9.214 0-.342.34-.683.34-1.024.681-1.365 1.022-3.072.681-5.12-.34-1.706-1.021-3.412-2.384-4.436-1.703-1.024-3.406-1.707-4.427-1.707-1.703 0-4.428.683-5.45 1.366-2.384 1.023-6.13 3.412-7.152 4.436-.34.342-1.022.683-1.362 1.365-1.022.683-1.703 1.707-2.725 2.39-.681.682-2.384 2.73-3.746 4.777-1.022 1.365-2.044 2.73-2.384 3.413-.34.683-1.363 2.048-2.725 3.413-2.043 2.73-4.427 6.143-5.79 7.167-1.022.683-2.384 1.365-3.746 1.706-.34 0-1.022.342-1.362.342-5.11 1.706-17.03 7.167-19.414 12.286l1.363.683c2.043-4.437 12.942-9.898 18.391-11.604.34 0 .681-.341 1.362-.341 1.363-.342 3.066-1.024 4.428-2.048 1.022-1.024 3.746-4.437 5.79-7.508 1.022-1.366 2.043-2.73 2.384-3.413.34-.683 1.362-1.707 2.384-3.413 1.362-2.048 3.065-4.096 3.746-4.778.682-1.024 1.703-1.706 2.725-2.39.34-.34 1.022-.682 1.362-1.364 1.022-1.024 4.428-3.072 6.812-4.437 1.022-.682 3.746-1.024 4.768-1.024.681 0 2.384.683 3.406 1.365 1.022.683 1.362 2.048 1.703 3.413.34 1.365 0 2.73-.681 4.096 0 .34-.341.682-.341 1.023-.34 1.707-3.406 6.144-5.45 8.874 0 0-.68.682-1.021 1.365-1.703 2.048-4.768 5.802-5.79 6.826-1.022 1.365-6.47 7.508-8.174 8.873-.681.683-1.022 1.024-1.703 1.365-1.021.683-2.043 1.707-3.065 2.73-2.043 2.048-3.406 3.755-4.427 5.461-1.703 2.39-3.406 5.12-4.769 7.85-.34 1.024-1.021 1.706-1.362 2.73-.34 1.024-1.022 1.706-1.362 2.73-.34.342-.34.683-.681 1.024-.682 1.024-1.022 2.048-1.363 3.072l2.725 1.365z" fill="#212121"/>
            <path d="M185.159 201.894c.34-6.826 1.703-13.31 4.087-19.112 1.362-3.413 3.746-6.484 5.79-8.873 1.362-1.707 16.348-15.017 19.754-17.406 3.065-2.389 14.644-9.897 17.71-11.262.68-.342 1.703-.342 2.724-.683 3.747-1.024 4.428-1.024 4.768-1.365l-.68-1.365c-.341.341-3.066 1.024-4.769 1.706-1.022.341-2.043.683-2.724.683-3.406 1.365-15.667 9.556-18.051 11.262-3.747 2.73-18.392 16.04-19.754 17.747-2.043 2.389-4.427 5.46-6.13 9.215-2.384 5.802-4.087 12.627-4.087 19.794l1.362-.341z" fill="#212121"/>
            <path d="m190.268 250.356 1.362-.34c-1.022-4.096-3.065-13.311-4.428-19.795-.34-1.707-1.702-9.215-2.043-11.945-.681-3.755-.34-13.652-.34-17.747l-1.363-.342c-.34 5.12-.34 14.334.34 18.089.341 3.071 1.704 10.238 2.044 12.286 1.362 6.143 3.406 15.699 4.428 19.794M229.094 236.022l1.362-.682c-1.703-2.39-1.703-3.754-2.043-4.778v-1.024c0-1.365-.34-3.072-.34-3.754h-1.363c0 1.024.34 2.73.34 4.095v1.024c0 .683.341 2.39 2.044 5.12M292.442 114.184a19.525 19.525 0 0 1-2.384-1.366c-.34 0-.681-.34-.681-.34-1.022-.683-2.044-1.707-2.384-3.072-.341-1.024-.341-2.048.34-3.072 1.022-1.706 2.725-3.413 3.747-3.754 1.021-.683 2.043-.683 3.065-1.024 2.724 0 4.768 2.39 5.109 4.096 0 1.023 0 1.706-.341 3.071-.34 1.024-.681 2.048-1.022 2.73 0 0-.34.342-.34.683-.341.682-.682 1.706-1.363 2.048-.34.34-.34.34-.68.34h-.682c-1.362.342-2.044 0-2.384-.34m2.043-.683c.682-.341 1.022-1.365 1.363-1.706 0-.342.34-.342.34-.683.34-.683.681-1.706 1.022-2.389.34-1.024.34-1.706 0-2.389 0-1.024-1.703-2.73-3.406-2.73-1.022 0-1.703.341-2.384.682-1.362 1.024-2.724 2.048-3.065 3.072-.34.683-.34 1.365 0 2.048.34.682 1.022 1.706 1.703 2.047.34 0 .681.342.681.342.681.34 1.703 1.023 2.384 1.365 1.022.341 1.362.341 1.362.341M324.797 71.523c.34-.341.34-.683 0-1.024 0-.341-.34-.682-.34-.682V68.11c0-1.025.34-2.049.68-3.072l.341-.683c.681-2.389 2.044-4.437 3.065-5.46l-1.021-1.024c-2.044 1.706-3.406 4.778-3.747 6.143l-.34.682c-.34 1.024-.681 2.048-.681 3.413v2.048c0 .341.34.682.68 1.365 0 0 0 .341.341.341l.681-.341h.341zM297.55 54.117l.682-2.047s0-.683-.34-.683v-.341c0-.683-.341-1.024-.341-1.707 0-.682 0-1.706.34-2.389v-.34c0-.342.34-1.025.34-1.366 0-.683.341-1.365.341-2.048.34-1.706.682-2.047.682-2.047l-.341-1.366c-1.362 0-1.703 2.048-2.044 3.072-.34.683-.34 1.365-.34 2.389 0 .341 0 1.024-.34 1.365v.341c-.341 1.024-.341 2.048-.341 3.072 0 .683.34 1.365.34 2.048v.341c.34-.341 1.022 1.024 1.363 1.706M281.543 126.811h.681l-.34-1.365c-.34 0-1.022 0-2.725-2.048-.34-.34-.68-.682-1.021-1.365l-1.703-1.706c0-.683-.682-.683-.682-.683s-.68 0-.68 1.024v.341c.68.683 1.021 1.365 1.702 2.048l1.022 1.024c1.022 1.024 2.384 2.73 3.746 2.73M280.181 128.176s.34 0 0 0v-1.365c-.681 0-1.362-.682-2.043-1.365l-.682-.341c-1.021-1.024-1.703-1.707-1.703-2.048l-1.362.341c0 1.024 1.022 1.707 2.044 2.73l.34.342c1.363.682 2.384 1.706 3.406 1.706M136.456 211.109c.681-3.413-.681-7.167-2.044-10.58-.34-.683-.34-1.365-.68-2.048-.341-1.365-1.022-2.73-1.704-4.095-.34-.683-.68-1.365-1.021-2.39l-.34-.682c-.682-1.706-1.704-3.754-3.066-5.46-3.406-4.437-7.152-8.533-10.899-11.945-5.108-5.12-9.877-9.556-14.304-13.31-2.725-2.048-5.109-4.779-7.493-7.168l-2.043-2.047c-1.363-1.365-2.384-2.39-3.747-3.413l-3.065-3.072c-2.725-2.73-4.087-5.119-4.428-5.802-1.021-2.047-1.362-4.095-2.043-6.825 0-.683-.34-1.707-.681-2.73l-1.362.34c.34 1.025.34 1.707.68 2.731.682 3.072 1.022 4.778 2.044 7.167.34.683 2.044 3.413 4.768 6.143l3.066 3.072c1.362 1.024 2.384 2.389 3.746 3.413l2.043 2.047c2.384 2.39 5.11 5.12 7.834 7.167 4.427 3.754 9.195 7.85 14.304 12.97 3.406 3.412 7.152 7.507 10.558 11.944 1.022 1.365 2.044 3.413 2.725 5.12l.34.682c.34.683.682 1.706 1.022 2.389.681 1.365 1.362 2.389 1.703 3.754.34.683.34 1.365.681 2.048 1.022 3.071 2.384 6.825 2.044 9.897l1.362.683z" fill="#212121"/>
            <path d="m78.557 132.954 1.363-.682c-1.022-2.048-1.703-5.46-2.384-8.532-.682-2.39-1.022-4.778-1.703-6.144-1.022-2.047-3.747-9.897-4.428-11.944-.681-2.048-3.746-9.898-4.768-11.945-1.703-4.096-7.152-17.406-7.152-18.43-.34-1.024-.34-2.048-.34-3.071-.341-1.366-.341-2.73-.682-4.096l-.34-1.706c-1.022-4.096-2.385-8.191-4.088-11.945-1.362-2.73-2.384-6.143-3.065-9.215-.34-1.024-.68-1.706-.68-2.73l-.342-.683c-.34-1.365-.68-2.389-1.021-3.754-.34-1.706-.34-3.072 1.021-3.754 1.363-.683 2.725-.683 4.769-.341 1.021.34 2.724.682 4.087 1.706 1.021 1.024 2.384 2.73 3.405 3.754l.341.341c2.384 3.072 4.087 7.509 4.428 8.191 1.021 2.73 1.702 10.239-.341 10.921l.681 1.366c3.406-1.707 1.703-10.58 1.022-12.628-.34-1.365-2.044-5.46-4.768-8.532l-.34-.341c-1.023-1.366-2.385-3.072-3.407-4.096-1.703-1.365-3.746-2.048-4.768-2.048-2.043-.34-3.746-.34-5.45.683-2.724 1.024-2.043 3.754-2.043 5.46l1.022 4.096.34.683c.341 1.023.682 1.706.682 2.73 1.022 3.071 1.703 6.484 3.406 9.215 1.703 3.754 2.724 7.508 4.087 11.603l.34 1.707c.34 1.365.681 2.389.681 3.754 0 1.024.341 2.048.682 3.071.34 1.366 5.79 15.017 7.492 18.771 1.022 2.048 4.087 9.897 4.768 11.945.682 1.707 3.406 9.897 4.428 11.945.34 1.024 1.022 3.413 1.362 5.802 0 3.413.682 6.826 1.703 8.873" fill="#212121"/>
            <path d="m77.536 79.714 1.362-.683-1.022-3.071c0-.342-.34-1.024-.34-1.365-.341-1.024-1.022-3.072-2.044-5.461-1.022-3.072-2.384-6.484-3.065-7.85-.34-1.023-2.725-6.484-4.087-6.825l-.681 1.365c.68.341 2.724 4.778 3.405 6.143.341 1.365 1.703 4.778 3.066 7.85 1.021 2.389 1.703 4.436 2.043 5.46 0 .341.34 1.024.34 1.365l1.023 3.072" fill="#212121"/>
            <path d="M77.195 73.912c0-.683.34-2.73.34-4.778l.341-2.048c.34-2.73.681-8.19 1.022-10.58 0-1.365.34-3.071.34-4.436 0-1.024.341-2.39.341-3.413.34-2.73 0-5.46 0-8.532V38.76c-.34-4.096-.681-8.533-1.022-12.97-.34-2.388-.68-6.825 1.703-7.849 1.022-.341 2.044-1.024 2.725-.682 1.362.34 2.724 1.024 3.406 1.706 1.362 1.365 2.384 3.072 3.065 4.437.681 1.365 1.022 2.047 1.362 3.754 1.362 3.754 1.703 7.508 1.703 10.921v.683c0 1.706.34 3.412 0 4.778 0 .682-1.022 3.071-1.703 3.412l-.34 1.366c.34 0 .68 0 1.021-.342 1.363-.682 2.384-3.754 2.384-4.095.341-1.707.341-3.413 0-5.12v-.682c-.34-3.072-.68-7.167-2.043-11.262-.681-1.707-.681-2.39-1.703-3.755-.681-1.365-1.703-3.071-3.065-4.436-1.022-1.365-2.384-2.048-4.428-2.39-1.362-.34-2.724.342-3.746 1.025-3.406 1.706-2.725 6.484-2.384 9.556.34 4.095.68 8.532 1.022 12.968v1.366c.34 2.73.34 5.46 0 8.19 0 1.024-.341 2.39-.341 3.413 0 1.365-.34 3.072-.34 4.778 0 2.39-.682 7.85-1.022 10.58l-.341 2.048c0 1.365-.34 4.095-.34 4.778l2.043-1.024z" fill="#212121"/>
            <path d="M91.84 76.642c2.043-1.365 2.384-2.73 2.725-3.071.34-1.024.68-2.048.68-3.072v-.341c0-.341 0-1.365.341-2.73.34-1.707.34-3.413.34-4.096 0-3.071-.68-12.627-1.02-14.334v-.682c-.341-1.366-.682-3.072-1.023-4.096l-1.362.341c.34 1.024.681 2.73 1.022 4.096v.682c.34 1.707 1.022 10.922 1.022 13.993 0 .683-.341 2.39-.341 4.096 0 1.023-.34 2.047-.34 2.73v.682c0 1.024 0 1.707-.341 2.73-.34.342-.681 1.707-2.384 2.731l.68.341z" fill="#212121"/>
            <path d="M100.354 97.46c.341-3.07 0-4.777-.34-6.142v-.683c-.34-1.024-.34-1.706-.34-2.73 0-.683 0-1.707-.341-2.39L98.31 81.42c-.34-.682-.681-1.706-.681-2.389-.34-1.365-1.022-2.73-1.703-4.095-.34-.683-.681-1.365-.681-1.707l-1.363.342c0 .341.341 1.024 1.022 1.706.681 1.024 1.362 2.39 1.703 3.754.34.683.34 1.707.681 2.39.34 1.364 1.022 2.73 1.022 3.753 0 .683 0 1.707.34 2.39 0 1.023 0 1.706.341 2.73v.682c.34 1.365.681 2.73.34 5.802l1.022.683zM105.123 64.015c2.043-1.024 2.724-2.048 3.065-2.73v-.342c.34-.682.68-1.365.68-1.706v-.342c.342-1.365.342-2.73 0-3.754v-1.024c0-3.754-1.02-7.85-2.383-11.603-.34-.683-.681-1.707-1.022-2.73-.681-2.73-1.703-5.461-3.406-7.509-1.362-1.706-3.065-2.048-4.427-2.048-.681 0-2.044 0-2.725.342-.681.341-2.384 1.024-3.065 2.389l1.362.682c.681-1.024 1.703-1.706 2.384-1.706.34 0 1.363-.341 2.044 0 1.703 0 2.724.682 3.406 1.365 1.702 1.706 2.384 4.437 3.065 6.826.34 1.024.681 1.706 1.022 2.73 1.362 3.754 2.043 7.508 2.384 11.262v5.12c0 .682 0 1.024-.341 1.365 0 0 0 .341-.34.341-.341.341-.682 1.365-2.385 2.048l.682 1.024z" fill="#212121"/>
            <path d="M110.231 85.857c0-.341.34-.341.34-.683.341-.34.341-.682.682-1.365.34-1.024.34-2.047.34-3.071v-7.509c0-1.706 0-3.412-.34-5.119-.34-1.365-.681-3.071-1.362-4.778-.34-.341-.34-.682-.681-1.365-.341-.341-.682-1.024-1.022-1.706l-1.363.682c.341 1.024.682 1.365 1.022 2.048.34.341.34.682.681 1.024.682 1.365 1.022 3.071 1.363 4.436.34 1.707.34 3.072.34 4.778v7.509c0 1.024-.34 1.706-.34 2.73 0 .341-.34.341-.34.683 0 .34-.341.34-.341.682v.341l1.021.683z" fill="#212121"/>
            <path d="M113.637 111.453c0-.34.34-1.024.34-1.706.341-1.706.682-3.072.682-3.413.34-1.706.681-5.46.681-6.826 0-2.389-.34-4.436-1.022-7.167-.34-1.365-.68-2.389-1.022-3.754-.34-1.024-1.702-3.754-3.065-4.436l-.68 1.365c.68.341 2.043 2.389 2.383 3.413.34 1.365.681 2.389 1.022 3.754.681 2.389 1.022 4.436 1.022 6.825 0 1.366-.34 5.46-.682 6.826 0 .341-.34 2.048-.68 3.413 0 .341 0 .682-.341 1.024l-.34 1.024 1.702-.342zM119.768 86.198c0-.682.34-1.365.34-1.706.34-1.365.34-2.73.34-4.096 0-2.389-.68-4.436-1.362-6.825-.34-1.707-1.021-3.413-2.043-5.12-.34-1.023-1.362-2.73-2.384-3.754-.681-.682-1.703-1.706-2.725-2.047-.681-.342-2.384-.342-3.746.682l.68 1.365c1.023-.682 2.385-.341 2.385-.341.681.341 1.703 1.024 2.043 1.706.682.683 1.363 2.048 2.044 3.413.681 1.707 1.362 3.072 1.703 4.778.681 2.39 1.022 4.437 1.362 6.485 0 1.365-.34 2.73-.34 4.095 0 .683-.341 1.365-.341 2.048l2.044-.683z" fill="#212121"/>
            <path d="M123.173 102.239s0-.342.34-.683c0-.341.341-.682.341-.682v-.342c0-.341 0-1.024.341-1.365.34-1.706 0-3.413-.34-4.778-.341-1.365-.682-3.071-1.022-4.778-.34-1.024-.681-2.048-1.363-2.73 0 0 0-.341-.34-.341-.34-.342-.681-1.024-1.362-2.048l-1.022 1.024c.68.682 1.022 1.365 1.022 1.706 0 .341.34.341.34.683.34.682.681 1.706 1.022 2.73.34 1.365.681 3.072 1.022 4.437.34 1.365.68 2.73.34 4.095 0 .341 0 1.024-.34 1.365v.342s0 .34-.341.682c0 .341-.34.683-.34 1.024l1.702-.341z" fill="#212121"/>
            <path d="M126.92 122.716h.34l-.34-1.365c.34 0 .68.34.68.34 0-.34-.34-3.753-.34-4.095 0-1.706 0-3.412-.34-5.119-.34-1.365-.34-2.389-.681-3.413-.341-.682-.341-1.023-.341-1.706V106.335c-.34-1.707-1.022-4.096-2.384-5.12l-1.022 1.365c1.022.683 1.703 3.072 2.044 4.437v1.024c0 .682.34 1.365.68 2.047.341.683.682 1.707.682 3.072.34 1.706.34 3.413.34 5.12-.34-.684 0 3.753.682 4.436z" fill="#212121"/>
            <path d="M106.825 146.264h1.363c0-1.023-.681-2.389-1.022-3.071-.34-.341-.34-.683-.34-1.024-.341-1.024-.682-2.048-1.022-2.73-.34-1.024-.681-1.707-1.022-2.73-1.022-3.072-2.725-5.802-4.087-8.191-1.022-1.707-2.384-3.413-4.087-5.46-1.022-1.025-1.703-2.049-2.725-3.073l-1.703-1.706c-1.362-1.365-6.47-7.85-7.492-9.556-.681-1.024-3.747-5.12-5.109-7.167-.34-.682-.681-1.024-1.022-1.365-2.043-3.072-4.427-7.508-4.768-9.215 0-.341-.34-.682-.34-1.365-.341-1.365-.682-2.73-.341-4.095.34-1.365 1.022-2.73 2.043-3.413 1.363-.683 2.725-1.365 3.747-1.365 1.362 0 3.746.682 4.768 1.365 2.384 1.365 5.45 3.754 6.471 4.778l1.362 1.365c1.022 1.024 1.703 1.706 2.384 2.73.682.683 2.044 3.072 3.406 5.12 1.022 1.706 1.703 3.071 2.384 3.412.34.683 1.363 2.048 2.384 3.413 2.044 3.072 4.087 6.826 5.45 7.85 1.021 1.024 2.724 1.706 4.087 2.389.34 0 .68.341 1.362.341 5.45 2.39 16.007 8.532 17.37 12.969l1.362-.341c-1.703-5.46-13.283-11.604-18.392-13.993-.34-.341-.68-.341-1.362-.341-1.362-.342-2.724-1.024-3.746-2.048-1.022-1.024-3.406-4.778-5.109-7.508-1.022-1.707-1.703-3.072-2.384-3.413-.34-.683-1.362-2.048-2.384-3.413-1.362-2.048-2.725-4.437-3.406-5.12-.681-1.023-1.703-2.047-2.384-2.73l-1.362-1.365c-1.022-1.365-4.768-3.754-6.812-5.119-1.362-.683-3.746-1.706-5.45-1.706-1.02 0-2.724.34-4.427 1.365-1.703 1.024-2.043 2.73-2.724 4.095-.682 2.048 0 3.754.34 5.12 0 .34.34.682.34 1.023.341 2.048 3.066 6.826 5.11 9.898 0 0 .34.682 1.021 1.365 1.363 2.047 4.428 6.143 5.109 7.167 1.022 1.706 6.13 8.19 7.493 9.897l1.703 1.706c1.021 1.024 2.043 1.707 2.724 2.73 1.703 2.048 3.066 3.755 4.087 5.461 1.363 2.39 2.725 5.12 4.087 7.85.34 1.024.681 1.706 1.022 2.73.34 1.024.681 1.706 1.022 2.73 0 .342.34.683.68 1.365 0 .683.341 1.707.341 2.39" fill="#212121"/>
            <path d="M181.072 189.266c.34-6.825-.681-13.992-2.725-20.135-1.362-3.755-3.405-6.826-5.108-9.556-1.363-1.707-7.153-8.533-8.855-10.239-3.066-3.072-23.5-20.136-26.906-21.501-.34-.341-1.022-.341-1.363-.683-1.021-.34-2.384-1.023-3.405-1.365-.341 0-.682-.341-1.022-.341-.34 0-1.362-.341-1.703-.683l-1.022 1.024c.34.683 1.363.683 2.384 1.024.34 0 .681 0 .681.341 1.022.342 2.384 1.024 3.406 1.366.34.34 1.022.34 1.363.682 3.065 1.365 23.5 18.43 26.565 21.16 1.703 1.706 7.493 8.532 8.514 10.238 1.703 2.73 3.747 5.802 5.11 9.215 2.043 5.802 2.724 12.628 2.724 19.453h1.362zM176.644 217.593c0-1.024.341-2.048.682-2.73 0-.683.34-1.024.68-1.707.341-1.365.682-2.73 1.023-3.754.34-1.024.68-2.048 1.021-3.754.681-3.754 1.703-10.58 1.703-16.382h-1.362c0 4.437-.681 12.287-1.362 16.04-.341 1.366-.682 2.39-1.022 3.414-.34 1.023-.681 2.047-1.022 3.754 0 .682-.34 1.024-.34 1.706-.341 1.024-.682 2.048-.682 3.072l.681.341zM132.71 224.077c2.043-2.389 2.724-8.532 2.724-9.556l.34-1.023c.341-1.366.341-1.707.341-2.73l-1.362-.342c-.34 1.024-.34 1.365-.34 2.73l-.341 1.024c-.34 1.024-.681 6.826-2.384 8.874l1.022 1.023zM76.854 94.39c-.34 0-.34-.342-.68-.342-.682-.683-1.023-1.365-1.363-2.39 0-.34 0-.34-.34-.682-.341-.682-.682-1.706-1.022-2.73v-3.072c.34-1.706 2.724-4.095 5.449-3.754.681 0 2.043.342 3.065 1.024.681.683 2.725 2.048 3.406 4.096a4.745 4.745 0 0 1 0 3.071c-.34 1.024-1.362 2.048-2.725 2.73-.34 0-.68.342-1.022.342-.68.341-1.702.682-2.384 1.024-.34.34-1.362.682-1.702.682h-.682m-1.703-8.873v2.389c0 .682.341 1.706.682 2.389 0 .341 0 .341.34.682.34.683.681 1.365 1.022 1.707h.34s.341 0 1.363-.342c.681-.34 1.703-.682 2.384-1.023.34 0 .681-.342 1.022-.342 1.021-.341 1.703-1.024 2.043-2.047.34-.342.34-1.024 0-2.048s-1.703-2.39-3.065-3.413c-.681-.341-1.022-.683-2.044-.683h-.34c-2.044 0-3.747 1.707-3.747 2.73M50.29 48.998l.34-.341.68.341s0-.341.341-.341c.341-.683.682-1.024.682-1.365 0-.683.34-1.365.34-1.707v-.341c0-1.024-.34-2.389-.34-3.413v-.682c-.341-1.707-1.363-4.778-3.406-6.485l-1.022 1.024c1.362 1.024 2.384 3.072 2.725 5.802v.682c.34 1.024.34 2.048.34 3.072v1.706s-.34.683-.68.683c-.342.683-.342 1.024 0 1.365M79.238 32.616c.341-.34.682-1.023.682-1.365v-.34c.34-.684.34-1.366.68-2.049.341-1.024 0-2.047 0-3.071v-1.707c0-.682 0-1.365-.34-2.389-.34-1.024-.681-3.071-1.703-3.071l-.34 1.365s.34.341.68 2.048c0 .682.341 1.365.341 2.047v1.707c0 1.024.341 1.706 0 2.389 0 .682-.34 1.024-.34 1.706v.341c0 .342 0 .683-.34.683l.68 1.706zM89.115 107.017c1.363 0 3.065-1.365 3.747-2.39a987311.223 987311.223 0 0 0 3.065-3.07v-.342c0-.683-.681-1.024-.681-1.024s-.681 0-.681.341c-.341.683-1.022 1.024-1.703 1.707l-1.022 1.024c-1.703 1.706-2.384 2.047-2.725 1.706l-.68 1.365c.34.683.34.683.68.683M90.478 108.723c1.021 0 2.043-.682 2.724-1.365l.681-.341c1.022-1.024 2.384-1.707 2.384-2.73l-1.362-.342c0 .341-.681 1.024-1.703 1.707l-.68.34c-.682.342-1.363 1.366-2.044 1.025l-.341 1.365c0 .341.34.341.34.341" fill="#212121"/>
            <path d="M122.833 311.446c0-.682-.681-1.706-.681-2.389-.682-2.047-1.703-3.754-3.066-5.46-3.065-3.754-7.833-6.143-12.601-7.85-5.109-1.706-10.218-2.73-15.326-3.071-1.022 0-1.703 0-2.725-.342h1.022l6.13-1.023c9.537-1.365 18.732-2.39 28.268-3.413v1.024c0 5.119 0 9.897-.34 15.016 0 2.048-.34 4.096-.34 6.143 0 0-.341.342 0 .683 0 0-.341.341-.341.682" fill="#FFF"/>
            <path d="M212.405 325.098s0 .341 0 0" fill="#010101"/>
            <path d="M30.535 314.177h-.34c-9.536-1.024-20.435-5.12-26.906-12.287 6.471 0 12.942-1.706 18.732-3.412 7.833-2.048 15.667-4.778 22.478-8.874h.34c6.812-3.754 13.283-7.85 19.754-11.603.682 3.071 1.363 5.801 2.725 8.532 1.703 3.071 4.428 5.46 7.833 6.825.682.342 1.022.342 1.703.683.34.341 1.022.341 1.363.341 2.724.683 5.79 0 8.855.341 7.493.342 14.985 1.366 21.797 4.437 2.725 1.365 5.79 3.072 7.833 5.46 1.703 1.707 2.384 3.755 3.406 6.144-6.13-4.437-13.964-4.778-21.116-3.754-6.812 1.024-13.623 3.754-19.754 6.825-4.427 2.048-8.514 4.437-12.601 7.167-2.044 1.366-4.428 2.73-6.471 4.096-.34.341-4.768 2.73-4.087 3.071-.34 0-.681-.34-1.022 0-12.26 8.191-28.609 14.334-43.594 12.97 9.196-5.461 16.007-15.017 19.754-24.573v-.342c0-1.706-.341-2.047-.682-2.047" fill="#FFF"/>
            <path d="M122.492 283.802c-8.514.683-16.688 1.707-25.203 2.73-3.746.683-7.833 1.025-11.58 1.707.341 0 .341.341.682.341 0 0-.341 0-.341-.34h-.681c-.681 0-1.703.682-2.384.682-1.703.34-3.747.34-5.45 0-9.195-2.73-9.536-15.017-11.239-22.866-1.021-4.437-2.724-9.215-1.362-13.993 1.022-4.096 4.087-7.508 8.174-9.215 4.428-1.706 8.855-3.413 13.623-4.778 37.805-12.969 77.993-20.818 117.841-22.525 19.073-.682 38.145 0 56.877 2.73 7.493 1.024 15.667 2.048 22.819 4.779 9.877 3.412 8.855 14.334 9.536 23.207.681 10.58 1.022 21.16 1.703 31.74.34 8.532 2.384 18.429-6.47 23.207-7.494 4.095-15.327-.683-22.48-3.072-8.514-2.73-17.369-5.119-26.224-7.167-38.486-8.19-78.333-10.238-117.84-7.167" fill="#FFF"/>
            <path d="M295.167 333.63c-1.363-.683-2.725-1.365-3.747-2.048-3.065-1.706-6.13-3.071-9.536-4.778-5.79-2.73-11.24-5.46-17.37-7.508-11.92-4.437-26.565-8.19-39.166-3.413-3.406 1.365-6.472 3.072-9.196 5.802.34-.341.34-1.024.681-1.365 1.362-2.048 3.406-3.413 5.45-4.778 10.217-6.143 23.84-7.508 35.42-8.191 7.152-.341 14.645-.683 21.797-.341.34 0 .681 0 .681-.342 6.471.683 13.283-2.047 17.029-7.85 2.044-3.07 2.725-6.825 2.725-10.238 0-1.706 0-3.412-.34-5.119 2.724 1.365 5.789 2.73 8.514 4.096h.34c8.855 4.436 18.732 6.825 28.609 8.873 7.493 1.365 15.667 2.73 23.5 2.389-7.493 9.897-20.775 15.699-32.355 17.747-.681 0-1.022.682-1.022 1.365v.682c5.45 11.604 14.986 22.867 26.565 28.668-4.427.683-9.195.683-13.623.683-14.304-.683-28.609-4.778-40.87-12.286-.34-.342-1.021-.342-1.362 0 1.363-.342-2.043-1.707-2.724-2.048" fill="#FFF"/>
            <path d="M210.703 312.129c-.341-5.12-.341-10.239-.341-15.358v-6.826c14.304 2.048 28.268 4.778 41.891 8.533 4.769 1.365 9.196 2.73 13.964 4.095 2.044.683 3.747 1.365 5.79 2.048-5.79 0-11.58.341-17.029.682-10.899 1.024-23.16 2.39-33.036 7.85-3.747 2.048-6.812 4.778-8.515 8.873-.34.683-.681 1.707-1.362 2.39 0-.342-.34-1.025-.34-1.366-1.022-3.071-1.022-7.167-1.022-10.921" fill="#FFF"/>
            <path d="m296.188 300.525 1.022-.682c-.681-1.024-1.703-2.048-2.384-3.072-2.044-2.048-5.109-3.754-8.515-4.778-3.405-1.024-6.811-1.365-9.536-1.706v1.365c3.406.341 6.471.682 9.196 1.706 3.406 1.024 6.13 2.39 8.174 4.437.681.683 1.362 1.706 2.043 2.73M283.587 298.478l.681-1.024c-3.746-2.39-7.833-2.73-11.92-3.413-2.384-.341-4.768-.683-7.153-1.365l-.34 1.365c2.384.682 4.768 1.024 7.493 1.365 3.746.341 7.833 1.024 11.239 3.072M296.188 275.612c.34-.683 0-1.366-1.021-1.707-5.79-3.413-12.943-3.754-19.414-4.095v1.365c6.13.341 13.283.682 18.732 4.095.341 0 .341.342.341.342h1.362zM296.188 263.667l.34-1.024c-9.195-3.413-14.985-5.12-24.862-6.485v1.365c9.537.683 15.327 2.39 24.522 6.144M279.84 267.762l.341-1.365c-3.746-.683-7.493-1.024-10.899-.683v1.365c3.406-.34 7.153 0 10.558.683M284.012 279.118l-.134 1.359-3.729-.37.135-1.358zM256.68 272.199l.342-1.365c-8.856-1.366-17.71-2.73-26.566-3.755v1.366c8.855 1.023 17.71 2.389 26.225 3.754M293.464 236.705l.34-1.365c-8.514-2.048-17.029-3.754-25.543-4.778v1.365c8.174 1.024 16.688 2.73 25.203 4.778M273.029 236.364l.34-1.365c-4.768-1.024-9.876-1.707-14.985-2.048v1.365c4.768.341 9.877 1.024 14.645 2.048M250.292 224.983l-.175 1.354-18.24-2.359.174-1.354zM204.994 227.05l-.026 1.365-25.538-.478.025-1.365zM130.666 241.483c2.725 0 5.45-.341 8.174-1.024l-.34-1.365c-3.066.683-6.131 1.365-9.196 1.024v1.365h1.362M109.89 237.729c8.175-1.707 16.69-2.39 25.204-2.048v-1.365c-8.515-.341-17.03.341-25.203 2.048v1.365zM234.884 283.802l.34-1.365-18.732-3.754c-3.405-.682-6.811-1.365-10.217-1.365v1.365c3.406 0 6.812.683 9.877 1.365l18.732 3.754zM196.045 275.335l-.203 1.35-8.42-1.27.203-1.35zM124.876 276.294c14.305-3.071 28.95-4.437 43.595-3.754v-1.365c-14.645-.683-29.631.682-43.935 3.754l.34 1.365zM103.08 276.294c4.086-1.365 8.173-1.706 12.26-1.024l.34-1.365c-4.427-.682-8.855-.341-12.942 1.365l.341 1.024zM80.941 284.485a30.914 30.914 0 0 1 12.602-2.73v-1.365A28.864 28.864 0 0 0 80.6 283.46l.34 1.024zM67.318 271.175c5.45-2.048 11.58-2.73 17.37-2.39v-1.364c-6.13-.342-12.261.682-18.051 2.389l.681 1.365zM66.637 266.738c1.362-.682 2.384-1.024 3.746-1.365l-.34-1.365c-1.363.341-2.725.682-4.087 1.365l.68 1.365zM72.767 249.333l4.087-1.024v-1.365c-1.362 0-3.065.34-4.427 1.023l.34 1.366zM91.5 246.261c2.724-1.024 5.449-1.706 8.173-2.048l-.34-1.365c-2.725.683-5.79 1.365-8.515 2.39l.681 1.023z" fill="#676767"/>
            <path d="M.224 301.208c6.47 8.532 18.05 12.969 28.608 14.334-4.086 9.897-11.58 19.453-21.116 24.231-.68.341-.68 1.707.341 1.707 6.812 1.023 13.964.34 20.775-1.024 6.13-1.365 11.92-3.413 17.37-6.143 2.044-1.024 3.746-2.048 5.45-3.072 1.021-.683 2.724-2.389 3.405-2.389 2.044-1.024 4.087-2.048 5.79-3.072 11.24-6.825 22.819-14.334 35.761-17.064 6.471-1.365 13.964-2.048 20.094 1.365 1.703 1.024 3.066 2.048 4.428 3.413 1.022 1.024 1.703 2.73 2.724 3.072.341 0 1.022 0 1.022-.342.681-1.023.34-11.603.681-14.334.341-4.778.341-9.556.341-14.333a412.666 412.666 0 0 1 82.08 2.047v12.628c0 5.119 0 9.897.681 15.016.34 2.73.34 6.485 1.703 8.874.34.682 1.362 2.389 1.703 2.73.34.683 1.022.683 1.703.341 1.362-.682 2.384-3.413 3.406-4.778 2.043-2.047 4.087-4.095 6.811-5.119 8.174-4.095 18.051-3.413 26.906-1.706 16.348 3.412 30.993 11.945 45.978 19.112.682.34 1.703.682 2.385 1.023.34 0 4.768 2.73 6.811 3.755 3.406 1.706 6.812 3.071 10.558 4.095a74.708 74.708 0 0 0 21.116 4.095c6.812.683 14.305.342 21.116-1.365 1.362-.341 1.022-2.047 0-2.389-12.26-4.778-22.138-16.04-27.927-27.644 12.942-2.73 26.565-9.556 33.717-20.818.34-.683 0-2.048-1.022-1.707-8.514 1.024-17.37-.34-25.543-2.047-9.877-1.707-19.754-4.437-28.61-8.874 0 0-6.81-3.071-9.876-4.778-.34-3.071-.34-6.484-.681-9.556l-2.044-34.81c-.34-7.85-4.427-14.676-12.26-17.065-8.174-2.73-17.03-3.754-25.544-4.778-20.435-2.73-40.87-3.413-61.305-2.048-42.913 2.39-85.826 11.945-126.014 26.962-3.406 1.365-6.471 3.754-8.515 6.825-5.45 8.191-1.362 18.089.34 26.62 0 .683.341 1.707.341 2.39-6.811 3.754-13.282 8.19-20.094 11.945h-.34c-6.812 4.095-14.646 6.825-22.479 8.873-6.47 1.706-13.623 3.413-20.435 3.072-.68 1.023-.68 2.047-.34 2.73m215.928 20.818c.34-.341.34-1.024.681-1.365 1.362-2.048 3.406-3.413 5.45-4.778 10.217-6.143 23.84-7.508 35.42-8.19 7.152-.342 22.137-.342 22.478-.342 7.493 0 13.283-2.048 17.029-7.85 2.044-3.071 2.725-6.825 2.725-10.238 0-1.706 0-3.413-.34-5.12 2.724 1.366 5.789 2.73 8.514 4.096 0 0 19.413 7.167 28.949 8.873 7.493 1.366 15.667 2.73 23.5 2.39-7.493 9.897-20.775 15.699-32.355 17.746-.681 0-1.022.683-1.022 1.365v.683c5.45 11.604 14.986 22.866 26.565 28.668-4.427.683-9.195.683-13.623.683-14.304-.683-28.609-4.778-40.87-12.287-.34-.341-4.086-2.047-4.768-2.389-1.362-.682-2.724-1.365-3.746-2.047-3.065-1.707-6.13-3.072-9.536-4.778-5.79-2.73-11.24-5.461-17.37-7.509-11.92-4.436-26.565-8.19-39.167-3.413-2.724 1.366-5.79 3.072-8.514 5.802m-5.79-24.914v-6.825c14.304 2.047 28.268 4.778 41.891 8.532 4.769 1.365 9.196 2.73 13.964 4.095 2.044.683 3.747 1.365 5.79 2.048-5.79 0-11.58.341-17.029.683-10.899 1.023-23.16 2.389-33.036 7.85-3.747 2.047-6.812 4.777-8.515 8.873-.34.682-.681 1.706-1.362 2.389 0-.342-.34-1.024-.34-1.366-1.022-3.754-1.022-7.508-1.022-11.262-.341-5.12-.341-9.897-.341-15.017m-87.87-13.31c-8.514.683-16.688 1.707-25.203 2.73-3.746.683-13.623 2.39-14.304 2.73-1.703.342-3.747.342-5.45 0-9.195-2.73-9.536-15.016-11.239-22.865-1.021-4.437-2.724-9.215-1.362-13.993 1.022-4.095 4.087-7.508 8.174-9.215 4.428-1.706 8.855-3.412 13.623-4.778 37.805-12.968 77.993-20.818 117.841-22.524 19.073-.683 38.145 0 56.877 2.73 7.493 1.024 15.667 2.048 22.819 4.778 9.877 3.413 8.855 14.334 9.536 23.207.681 10.58 1.022 21.16 1.703 31.74.34 8.532 2.384 18.43-6.47 23.207-7.494 4.096-15.327-.682-22.48-3.071-8.514-2.73-17.369-5.12-26.224-7.167-38.486-8.532-78.333-10.58-117.84-7.509m-3.407 19.795c-3.065-3.754-7.833-6.485-12.601-7.85-5.109-1.706-10.218-2.73-15.326-3.071-1.022 0-1.703 0-2.725-.342h1.022l6.13-1.023c9.537-1.365 18.732-2.39 28.268-3.413v1.024c0 5.119 0 9.897-.34 15.016 0 2.048-.34 6.143-.681 6.826 0 .341 0 .341-.34.682 0-.682-.682-1.706-.682-2.389-.34-2.047-1.362-4.095-2.725-5.46M2.948 301.549c6.471 0 12.942-1.706 18.732-3.413 7.834-2.047 15.667-4.778 22.479-8.873h.34c6.812-3.754 13.283-7.85 19.754-11.604.681 3.072 1.362 5.802 2.725 8.532 2.043 3.072 4.427 5.46 7.833 6.826.681.341 1.022.341 1.703.683.34.34 1.022.34 1.362.34 2.725.683 5.79 0 8.855.342 7.493.341 14.986 1.365 21.797 4.437 2.725 1.365 5.79 3.071 7.834 5.46 1.703 1.707 2.384 3.755 3.406 6.144-6.13-4.437-13.964-4.778-21.116-3.755-6.812 1.024-13.624 3.755-19.754 6.826-4.428 2.048-8.515 4.437-12.602 7.167-2.043 1.365-4.427 2.73-6.47 4.096-.682.34-4.769 2.73-4.088 3.071-.34 0-.68-.341-1.021 0-12.261 8.191-28.61 14.334-43.595 12.969 9.196-5.46 16.008-15.017 19.754-24.573v-.34c.34-.683 0-1.025-.681-1.025h-.34c-9.196-2.047-20.095-5.802-26.907-13.31M344.891 64.356c-3.065 2.73-6.13 5.46-8.855 8.532-.34.341-.68 0-.34-.341 2.724-3.072 5.79-6.143 8.514-9.215 2.725-2.73 5.45-5.802 8.855-7.85 1.022-.682 2.384 1.024 1.363 2.048-3.066 2.048-6.471 4.437-9.537 6.826M336.377 59.237c-.34.341-.681 0-.681-.342 4.427-6.484 8.855-12.627 13.963-18.429 1.022-1.365 3.066.683 2.044 2.048-5.109 5.46-10.217 10.92-15.326 16.723M304.362 44.561c0 .342-.68.342-.68 0 1.02-7.508 2.043-15.357 3.745-22.866.341-1.706 3.066-1.024 2.725.683-1.703 7.508-3.746 15.016-5.79 22.183M328.884 49.68c0 .342-.34 0-.34 0 1.021-3.753 2.043-8.531 4.427-11.603.681-.683 2.043-.341 1.703.683-1.703 3.412-4.087 7.167-5.79 10.92M331.609 104.969c-2.384 0-4.768-.341-7.493-.683-.681 0-.681-1.023 0-1.023 2.384-.342 4.768-.683 7.493-.683 1.703-.341 1.703 2.389 0 2.389M332.971 90.976c-1.362.683-2.725 1.707-4.087 2.39-.681.34-1.703-.683-1.022-1.025 1.363-1.023 2.384-2.047 3.747-3.071 1.362-1.365 2.724 1.024 1.362 1.706M336.717 81.42c-.68.342-1.362-.682-.68-1.024.68-.682 1.021-1.365 1.362-2.047.34-.683.68-1.365.68-2.39.341-1.023 2.044-1.023 2.044.342-.34 2.048-1.703 4.095-3.406 5.12M64.253 24.767c1.703 3.754 3.065 7.508 4.427 11.262 0 .342.682.342.682-.341l-4.087-12.286c-1.363-3.754-2.384-7.508-4.428-10.921-.681-1.365-2.725 0-2.043 1.024 1.362 4.095 3.405 7.508 5.449 11.262M73.79 23.402c0 .341.68.341.68 0-1.362-7.508-2.724-15.017-5.108-22.525-.682-1.706-3.066-.683-2.725 1.024 2.384 7.167 5.109 14.334 7.152 21.5M59.485 99.85c1.021 1.365 2.043 2.73 2.724 3.754.341.682 1.703 0 1.363-.683-.681-1.365-1.363-2.73-2.044-4.436-.68-1.366-3.065 0-2.043 1.365M57.1 94.048c.341.682 1.363 0 1.022-.683-.34-.682-.34-1.706-.34-2.389 0-.682 0-1.706.34-2.389 0-1.024-1.362-1.706-1.702-.682-1.022 2.047-.341 4.436.68 6.143M323.435 97.46c.34 1.025-1.022 1.366-1.363.342-.34-1.024 0-2.048.682-2.73.34-.342.68 0 1.021 0 .34.341.34.682 0 1.024-.34.34-.34 1.023-.34 1.365M314.92 114.184c1.703 1.365 3.747 2.73 5.79 4.095.34.341 0 1.024-.34.683-2.044-1.366-3.747-2.73-5.79-4.096-1.022-.341-.34-1.365.34-.682M53.354 24.084h-2.043c-.681 0-.681-1.024 0-1.024h2.043c.681 0 .681 1.024 0 1.024M45.18 29.886c-.68-1.024-1.362-2.048-2.043-3.413-.34-.682.681-1.024 1.022-.682.68 1.024 1.703 2.047 2.384 3.071.34 1.024-.681 1.707-1.363 1.024M279.5 44.22c-6.812-1.365-10.218 5.12-13.283 9.897-.34.683-1.362.342-1.022-.34 2.385-5.803 7.493-12.287 14.645-10.24.341 0 0 .683-.34.683M43.818 47.292c0 .341-.681.341-.681 0-.34-.683-.34-1.707-.681-2.73 0-.683.68-.683.68 0 .341 1.023.682 2.047.682 2.73M270.304 42.514c-1.022.341-2.043 1.365-2.384 2.389-.34.341-1.022 0-.681-.342.34-1.365 1.703-2.389 3.065-2.73.34-.341.34.683 0 .683M97.29 23.06c0 .683-1.023.683-1.023 0-1.021-2.73-1.362-5.119-3.065-7.508a26.217 26.217 0 0 0-6.13-6.143c-.34-.341 0-1.024.34-.682 4.768 2.73 9.877 8.19 9.877 14.333M313.217 43.538l-2.043 3.071c-.34.341-.681 0-.34-.341l2.043-3.072c0-.682.34 0 .34.342M308.109 51.046c-.341.341-.682 1.024-1.022 1.365-.34.683-1.362 0-1.022-.683.34-.34.681-1.023 1.022-1.365.34-.682 1.362 0 1.022.683M109.89 36.03c-.68-1.025 1.022-2.048 1.704-1.025 3.405 5.461 3.746 11.945 2.043 18.43-.34.682-1.362.341-1.022-.341 1.022-6.144 0-11.945-2.724-17.065M80.6 8.044c.341.683-1.021 1.024-1.021.341-.34-.682-.34-1.706-.681-2.389 0-.682.681-.682 1.022-.341.34.683.34 1.706.68 2.389M316.964 51.387c.34-1.365 1.021-2.73 1.362-4.095.34-.683 1.703-.342 1.362.341-.34 1.365-.68 2.73-1.362 3.754 0 1.365-1.703 1.024-1.362 0M304.362 66.404c0 .682-1.362.341-1.362-.342.34-1.023.34-2.047.681-3.071 0-.683 1.362-.341 1.362.341-.34 1.024-.68 2.048-.68 3.072M52.673 81.079c-4.087-6.484-8.174-15.358-7.833-23.207 0-1.024 1.703-1.366 2.043-.342 1.022 3.413 1.703 7.167 2.384 10.921 1.022 4.096 2.725 8.191 4.428 12.287.34.682-.681 1.024-1.022.341" fill="#212121"/>
            <path d="m104.782 258.206.34 3.072 1.363-.342.34 1.707-1.362.341.34 5.12-1.362.34-.34-5.119-1.363.342.341 5.119-1.703.341-.34-5.12-1.363.342-.34-1.706 1.703-.342-.341-3.412-1.362.34-.34-1.706 1.702-.34-.34-5.12 1.702-.341.34 5.119 1.363-.341-.34-5.12 1.703-.341.34 5.12 1.362-.342.341 1.706-2.384.683zm-3.065.341.34 3.072 1.363-.341-.34-3.413-1.363.682zM118.405 266.397l-1.362-3.413-4.428.683-.34 3.754-2.725.341 1.703-17.747 3.746-.682 6.471 16.381-3.065.683zm-5.109-13.652-.68 8.874 3.746-.683-3.066-8.19zM128.623 265.032l-2.384-4.096-1.363 4.778-3.065.342 2.384-6.826-3.406-5.46 2.725-.342 2.384 3.754 1.022-4.437 3.065-.34-2.044 6.142 3.747 6.143zM135.094 258.889c.34 2.047 1.021 3.412 2.724 3.412 1.022 0 1.363-1.023 1.703-1.706l2.044 1.024c-.34 1.706-1.703 3.071-3.747 3.413-2.724.341-5.108-1.707-5.449-6.143-.34-4.096 1.022-6.826 4.087-7.167 3.065-.342 4.768 2.047 5.109 5.801v1.024l-6.471.342zm1.362-5.461c-1.362 0-1.703 2.048-1.703 3.413l3.746-.341c0-2.048-.68-3.072-2.043-3.072M146.082 244.796l1.898 18.332-2.71.281-1.898-18.331zM152.804 256.84c.34 2.049 1.022 3.414 2.384 3.414 1.022 0 1.362-1.024 1.703-1.707l2.043 1.024c-.68 1.707-1.703 3.072-3.746 3.072-2.725.341-5.109-2.048-5.45-6.143-.34-4.096 1.363-6.826 4.088-7.167 3.065-.342 4.768 2.389 5.108 5.801v1.024l-6.13.683zm1.703-5.118c-1.363 0-1.703 2.047-1.703 3.412l3.746-.34c0-2.049-.68-3.414-2.043-3.072M167.108 248.309h.34v2.73h-.68c-1.363 0-2.044 2.048-2.044 4.095l.34 6.144-2.724.34-1.022-12.285 2.725-.342.34 2.39c.682-2.048 1.703-3.072 2.725-3.072M175.623 258.889c-.34 1.365-1.022 2.389-2.725 2.389-1.362 0-3.065-.683-3.406-3.413-.34-3.413 2.384-4.437 4.768-4.778h.682v-.342c0-1.706-1.022-2.389-2.044-2.047-1.022 0-1.703.682-2.043 1.365l-1.363-1.707c.681-1.365 2.384-2.047 3.747-2.047 3.065-.342 4.087 1.706 4.427 5.119l.34 7.508h-2.383v-2.047zm-.34-4.096h-.682c-1.362 0-2.725.683-2.384 2.39 0 1.364.681 1.706 1.703 1.706 1.362 0 2.043-2.048 1.703-3.413l-.34-.683zM183.456 247.626v2.048c.34-1.365 1.362-2.39 3.065-2.39 2.725 0 3.406 2.39 3.406 4.779l.34 7.85h-2.724l-.34-7.85c0-1.365-.341-2.73-1.703-2.73-1.363 0-2.044 1.365-1.703 3.412l.34 7.167h-2.724l-.682-12.286h2.725zM196.398 249.333l.34 6.484c0 1.365.341 2.048 1.363 2.048.34 0 .681 0 .681-.342v2.048c-.34.341-1.022.341-1.703.341-2.043 0-3.065-1.365-3.065-3.412l-.34-6.826h-1.703v-2.048h1.703v-3.071h2.724v3.071h2.044v2.048l-2.044-.341zM207.637 259.23h-3.746l-4.428-17.064h3.406l3.065 13.651 2.725-13.651h3.065zM218.536 257.523c-.34 1.366-1.362 2.048-2.725 2.048-1.362 0-3.065-1.024-3.065-3.754 0-3.413 2.725-4.437 5.109-4.437h.68v-.341c0-1.706-.68-2.389-1.702-2.389-1.022 0-1.703.341-2.384 1.024l-1.362-1.707c1.021-1.023 2.384-1.706 3.746-1.706 3.065 0 4.087 2.048 4.087 5.46v7.509h-2.384v-1.707zm0-4.095h-.681c-1.363 0-2.725.341-2.725 2.048 0 1.365.681 2.047 1.362 2.047 1.363 0 2.044-1.706 2.044-3.412v-.683zM227.83 240.958l-.42 18.424-2.724-.063.42-18.423zM237.268 259.912v-2.047c-.34 1.365-1.703 2.389-3.065 2.389-2.725 0-3.066-2.73-3.066-5.12l.341-7.85h2.725l-.341 7.85c0 1.366 0 2.73 1.362 2.73 1.363 0 2.044-1.364 2.044-3.07l.34-7.168h2.725l-.681 12.286h-2.384zM245.782 254.793c0 2.048.34 3.413 2.044 3.754 1.022 0 1.703-.682 2.043-1.365l2.044 1.365c-.681 1.707-2.384 2.73-4.087 2.39-2.725-.342-4.428-2.731-4.428-6.826.34-4.096 2.384-6.485 5.109-6.144 3.065.342 4.087 3.072 3.746 6.485v1.024l-6.47-.683zm2.384-4.778c-1.362 0-2.043 1.707-2.384 3.072l3.747.341c.34-2.048 0-3.413-1.363-3.413M260.768 252.063c-.34-.683-1.022-1.024-2.044-1.365-.68 0-1.362.341-1.702 1.365 0 1.024.34 1.365 1.702 2.048 1.363.682 2.725 1.706 2.384 4.095-.34 2.73-2.384 3.754-4.427 3.754-1.362 0-2.725-1.024-3.746-2.048l1.702-1.706c.341.683 1.363 1.365 2.385 1.365 1.021 0 1.362-.682 1.702-1.365 0-1.024-.68-1.706-1.702-2.048-1.363-.682-2.385-1.365-2.385-3.754.341-2.389 2.385-3.754 4.428-3.413 1.362 0 2.725 1.024 3.406 1.707l-1.703 1.365z" fill="#F26B26"/>
        </g>
    </g>
</svg>
